<?xml version="1.0" encoding="utf-8" standalone="no"?>
<!DOCTYPE svg PUBLIC "-//W3C//DTD SVG 1.1//EN"
  "http://www.w3.org/Graphics/SVG/1.1/DTD/svg11.dtd">
<!-- Created with matplotlib (https://matplotlib.org/) -->
<svg height="360pt" version="1.1" viewBox="0 0 360 360" width="360pt" xmlns="http://www.w3.org/2000/svg" xmlns:xlink="http://www.w3.org/1999/xlink">
 <defs>
  <style type="text/css">
*{stroke-linecap:butt;stroke-linejoin:round;}
  </style>
 </defs>
 <g id="figure_1">
  <g id="patch_1">
   <path d="M 0 360 
L 360 360 
L 360 0 
L 0 0 
z
" style="fill:#ffffff;"/>
  </g>
  <g id="axes_1">
   <g id="patch_2">
    <path d="M 24.19 332.12 
L 288.913153 332.12 
L 288.913153 10.8 
L 24.19 10.8 
z
" style="fill:#ffffff;"/>
   </g>
   <g id="matplotlib.axis_1">
    <g id="xtick_1">
     <g id="line2d_1">
      <defs>
       <path d="M 0 0 
L 0 3.5 
" id="m19915becef" style="stroke:#000000;stroke-width:0.8;"/>
      </defs>
      <g>
       <use style="stroke:#000000;stroke-width:0.8;" x="58.3036" xlink:href="#m19915becef" y="332.12"/>
      </g>
     </g>
     <g id="text_1">
      <!-- 0 -->
      <defs>
       <path d="M 31.78125 66.40625 
Q 24.171875 66.40625 20.328125 58.90625 
Q 16.5 51.421875 16.5 36.375 
Q 16.5 21.390625 20.328125 13.890625 
Q 24.171875 6.390625 31.78125 6.390625 
Q 39.453125 6.390625 43.28125 13.890625 
Q 47.125 21.390625 47.125 36.375 
Q 47.125 51.421875 43.28125 58.90625 
Q 39.453125 66.40625 31.78125 66.40625 
z
M 31.78125 74.21875 
Q 44.046875 74.21875 50.515625 64.515625 
Q 56.984375 54.828125 56.984375 36.375 
Q 56.984375 17.96875 50.515625 8.265625 
Q 44.046875 -1.421875 31.78125 -1.421875 
Q 19.53125 -1.421875 13.0625 8.265625 
Q 6.59375 17.96875 6.59375 36.375 
Q 6.59375 54.828125 13.0625 64.515625 
Q 19.53125 74.21875 31.78125 74.21875 
z
" id="DejaVuSans-48"/>
      </defs>
      <g transform="translate(55.12235 346.718437)scale(0.1 -0.1)">
       <use xlink:href="#DejaVuSans-48"/>
      </g>
     </g>
    </g>
    <g id="xtick_2">
     <g id="line2d_2">
      <g>
       <use style="stroke:#000000;stroke-width:0.8;" x="156.551576" xlink:href="#m19915becef" y="332.12"/>
      </g>
     </g>
     <g id="text_2">
      <!-- 1 -->
      <defs>
       <path d="M 12.40625 8.296875 
L 28.515625 8.296875 
L 28.515625 63.921875 
L 10.984375 60.40625 
L 10.984375 69.390625 
L 28.421875 72.90625 
L 38.28125 72.90625 
L 38.28125 8.296875 
L 54.390625 8.296875 
L 54.390625 0 
L 12.40625 0 
z
" id="DejaVuSans-49"/>
      </defs>
      <g transform="translate(153.370326 346.718437)scale(0.1 -0.1)">
       <use xlink:href="#DejaVuSans-49"/>
      </g>
     </g>
    </g>
    <g id="xtick_3">
     <g id="line2d_3">
      <g>
       <use style="stroke:#000000;stroke-width:0.8;" x="254.799553" xlink:href="#m19915becef" y="332.12"/>
      </g>
     </g>
     <g id="text_3">
      <!-- 2 -->
      <defs>
       <path d="M 19.1875 8.296875 
L 53.609375 8.296875 
L 53.609375 0 
L 7.328125 0 
L 7.328125 8.296875 
Q 12.9375 14.109375 22.625 23.890625 
Q 32.328125 33.6875 34.8125 36.53125 
Q 39.546875 41.84375 41.421875 45.53125 
Q 43.3125 49.21875 43.3125 52.78125 
Q 43.3125 58.59375 39.234375 62.25 
Q 35.15625 65.921875 28.609375 65.921875 
Q 23.96875 65.921875 18.8125 64.3125 
Q 13.671875 62.703125 7.8125 59.421875 
L 7.8125 69.390625 
Q 13.765625 71.78125 18.9375 73 
Q 24.125 74.21875 28.421875 74.21875 
Q 39.75 74.21875 46.484375 68.546875 
Q 53.21875 62.890625 53.21875 53.421875 
Q 53.21875 48.921875 51.53125 44.890625 
Q 49.859375 40.875 45.40625 35.40625 
Q 44.1875 33.984375 37.640625 27.21875 
Q 31.109375 20.453125 19.1875 8.296875 
z
" id="DejaVuSans-50"/>
      </defs>
      <g transform="translate(251.618303 346.718437)scale(0.1 -0.1)">
       <use xlink:href="#DejaVuSans-50"/>
      </g>
     </g>
    </g>
   </g>
   <g id="matplotlib.axis_2">
    <g id="ytick_1">
     <g id="line2d_4">
      <defs>
       <path d="M 0 0 
L -3.5 0 
" id="mb359dce763" style="stroke:#000000;stroke-width:0.8;"/>
      </defs>
      <g>
       <use style="stroke:#000000;stroke-width:0.8;" x="24.19" xlink:href="#mb359dce763" y="269.707977"/>
      </g>
     </g>
     <g id="text_4">
      <!-- 0 -->
      <g transform="translate(10.8275 273.507196)scale(0.1 -0.1)">
       <use xlink:href="#DejaVuSans-48"/>
      </g>
     </g>
    </g>
    <g id="ytick_2">
     <g id="line2d_5">
      <g>
       <use style="stroke:#000000;stroke-width:0.8;" x="24.19" xlink:href="#mb359dce763" y="171.46"/>
      </g>
     </g>
     <g id="text_5">
      <!-- 1 -->
      <g transform="translate(10.8275 175.259219)scale(0.1 -0.1)">
       <use xlink:href="#DejaVuSans-49"/>
      </g>
     </g>
    </g>
    <g id="ytick_3">
     <g id="line2d_6">
      <g>
       <use style="stroke:#000000;stroke-width:0.8;" x="24.19" xlink:href="#mb359dce763" y="73.212023"/>
      </g>
     </g>
     <g id="text_6">
      <!-- 2 -->
      <g transform="translate(10.8275 77.011242)scale(0.1 -0.1)">
       <use xlink:href="#DejaVuSans-50"/>
      </g>
     </g>
    </g>
   </g>
   <g id="line2d_7">
    <defs>
     <path d="M 0 5 
C 1.326016 5 2.597899 4.473168 3.535534 3.535534 
C 4.473168 2.597899 5 1.326016 5 0 
C 5 -1.326016 4.473168 -2.597899 3.535534 -3.535534 
C 2.597899 -4.473168 1.326016 -5 0 -5 
C -1.326016 -5 -2.597899 -4.473168 -3.535534 -3.535534 
C -4.473168 -2.597899 -5 -1.326016 -5 0 
C -5 1.326016 -4.473168 2.597899 -3.535534 3.535534 
C -2.597899 4.473168 -1.326016 5 0 5 
z
" id="m29cdaa0f2a" style="stroke:#1f77b4;"/>
    </defs>
    <g clip-path="url(#pbacb4c5232)">
     <use style="fill:#1f77b4;stroke:#1f77b4;" x="156.551576" xlink:href="#m29cdaa0f2a" y="171.46"/>
    </g>
   </g>
   <g id="line2d_8">
    <path clip-path="url(#pbacb4c5232)" d="M 226.023387 291.788706 
L 36.222871 240.931811 
L 87.079766 51.131294 
L 276.880282 101.988189 
L 226.023387 291.788706 
" style="fill:none;stroke:#ff7f0e;stroke-linecap:square;stroke-width:1.5;"/>
    <defs>
     <path d="M 0 3 
C 0.795609 3 1.55874 2.683901 2.12132 2.12132 
C 2.683901 1.55874 3 0.795609 3 0 
C 3 -0.795609 2.683901 -1.55874 2.12132 -2.12132 
C 1.55874 -2.683901 0.795609 -3 0 -3 
C -0.795609 -3 -1.55874 -2.683901 -2.12132 -2.12132 
C -2.683901 -1.55874 -3 -0.795609 -3 0 
C -3 0.795609 -2.683901 1.55874 -2.12132 2.12132 
C -1.55874 2.683901 -0.795609 3 0 3 
z
" id="mb425e04ee2" style="stroke:#ff7f0e;"/>
    </defs>
    <g clip-path="url(#pbacb4c5232)">
     <use style="fill:#ff7f0e;stroke:#ff7f0e;" x="226.023387" xlink:href="#mb425e04ee2" y="291.788706"/>
     <use style="fill:#ff7f0e;stroke:#ff7f0e;" x="36.222871" xlink:href="#mb425e04ee2" y="240.931811"/>
     <use style="fill:#ff7f0e;stroke:#ff7f0e;" x="87.079766" xlink:href="#mb425e04ee2" y="51.131294"/>
     <use style="fill:#ff7f0e;stroke:#ff7f0e;" x="276.880282" xlink:href="#mb425e04ee2" y="101.988189"/>
     <use style="fill:#ff7f0e;stroke:#ff7f0e;" x="226.023387" xlink:href="#mb425e04ee2" y="291.788706"/>
    </g>
   </g>
   <g id="patch_3">
    <path d="M 24.19 332.12 
L 24.19 10.8 
" style="fill:none;stroke:#000000;stroke-linecap:square;stroke-linejoin:miter;stroke-width:0.8;"/>
   </g>
   <g id="patch_4">
    <path d="M 288.913153 332.12 
L 288.913153 10.8 
" style="fill:none;stroke:#000000;stroke-linecap:square;stroke-linejoin:miter;stroke-width:0.8;"/>
   </g>
   <g id="patch_5">
    <path d="M 24.19 332.12 
L 288.913153 332.12 
" style="fill:none;stroke:#000000;stroke-linecap:square;stroke-linejoin:miter;stroke-width:0.8;"/>
   </g>
   <g id="patch_6">
    <path d="M 24.19 10.8 
L 288.913153 10.8 
" style="fill:none;stroke:#000000;stroke-linecap:square;stroke-linejoin:miter;stroke-width:0.8;"/>
   </g>
   <g id="text_7">
    <!-- (1.00, 1.00) -->
    <defs>
     <path d="M 31 75.875 
Q 24.46875 64.65625 21.28125 53.65625 
Q 18.109375 42.671875 18.109375 31.390625 
Q 18.109375 20.125 21.3125 9.0625 
Q 24.515625 -2 31 -13.1875 
L 23.1875 -13.1875 
Q 15.875 -1.703125 12.234375 9.375 
Q 8.59375 20.453125 8.59375 31.390625 
Q 8.59375 42.28125 12.203125 53.3125 
Q 15.828125 64.359375 23.1875 75.875 
z
" id="DejaVuSans-40"/>
     <path d="M 10.6875 12.40625 
L 21 12.40625 
L 21 0 
L 10.6875 0 
z
" id="DejaVuSans-46"/>
     <path d="M 11.71875 12.40625 
L 22.015625 12.40625 
L 22.015625 4 
L 14.015625 -11.625 
L 7.71875 -11.625 
L 11.71875 4 
z
" id="DejaVuSans-44"/>
     <path id="DejaVuSans-32"/>
     <path d="M 8.015625 75.875 
L 15.828125 75.875 
Q 23.140625 64.359375 26.78125 53.3125 
Q 30.421875 42.28125 30.421875 31.390625 
Q 30.421875 20.453125 26.78125 9.375 
Q 23.140625 -1.703125 15.828125 -13.1875 
L 8.015625 -13.1875 
Q 14.5 -2 17.703125 9.0625 
Q 20.90625 20.125 20.90625 31.390625 
Q 20.90625 42.671875 17.703125 53.65625 
Q 14.5 64.65625 8.015625 75.875 
z
" id="DejaVuSans-41"/>
    </defs>
    <g transform="translate(159.007776 169.003801)scale(0.12 -0.12)">
     <use xlink:href="#DejaVuSans-40"/>
     <use x="39.013672" xlink:href="#DejaVuSans-49"/>
     <use x="102.636719" xlink:href="#DejaVuSans-46"/>
     <use x="134.423828" xlink:href="#DejaVuSans-48"/>
     <use x="198.046875" xlink:href="#DejaVuSans-48"/>
     <use x="261.669922" xlink:href="#DejaVuSans-44"/>
     <use x="293.457031" xlink:href="#DejaVuSans-32"/>
     <use x="325.244141" xlink:href="#DejaVuSans-49"/>
     <use x="388.867188" xlink:href="#DejaVuSans-46"/>
     <use x="420.654297" xlink:href="#DejaVuSans-48"/>
     <use x="484.277344" xlink:href="#DejaVuSans-48"/>
     <use x="547.900391" xlink:href="#DejaVuSans-41"/>
    </g>
   </g>
   <g id="text_8">
    <!-- (1.71, 1.71) -->
    <defs>
     <path d="M 8.203125 72.90625 
L 55.078125 72.90625 
L 55.078125 68.703125 
L 28.609375 0 
L 18.3125 0 
L 43.21875 64.59375 
L 8.203125 64.59375 
z
" id="DejaVuSans-55"/>
    </defs>
    <g transform="translate(228.479587 289.332506)scale(0.12 -0.12)">
     <use xlink:href="#DejaVuSans-40"/>
     <use x="39.013672" xlink:href="#DejaVuSans-49"/>
     <use x="102.636719" xlink:href="#DejaVuSans-46"/>
     <use x="134.423828" xlink:href="#DejaVuSans-55"/>
     <use x="198.046875" xlink:href="#DejaVuSans-49"/>
     <use x="261.669922" xlink:href="#DejaVuSans-44"/>
     <use x="293.457031" xlink:href="#DejaVuSans-32"/>
     <use x="325.244141" xlink:href="#DejaVuSans-49"/>
     <use x="388.867188" xlink:href="#DejaVuSans-46"/>
     <use x="420.654297" xlink:href="#DejaVuSans-55"/>
     <use x="484.277344" xlink:href="#DejaVuSans-49"/>
     <use x="547.900391" xlink:href="#DejaVuSans-41"/>
    </g>
   </g>
   <g id="text_9">
    <!-- (-0.22, -0.22) -->
    <defs>
     <path d="M 4.890625 31.390625 
L 31.203125 31.390625 
L 31.203125 23.390625 
L 4.890625 23.390625 
z
" id="DejaVuSans-45"/>
    </defs>
    <g transform="translate(38.67907 238.475611)scale(0.12 -0.12)">
     <use xlink:href="#DejaVuSans-40"/>
     <use x="39.013672" xlink:href="#DejaVuSans-45"/>
     <use x="75.097656" xlink:href="#DejaVuSans-48"/>
     <use x="138.720703" xlink:href="#DejaVuSans-46"/>
     <use x="170.507812" xlink:href="#DejaVuSans-50"/>
     <use x="234.130859" xlink:href="#DejaVuSans-50"/>
     <use x="297.753906" xlink:href="#DejaVuSans-44"/>
     <use x="329.541016" xlink:href="#DejaVuSans-32"/>
     <use x="361.328125" xlink:href="#DejaVuSans-45"/>
     <use x="397.412109" xlink:href="#DejaVuSans-48"/>
     <use x="461.035156" xlink:href="#DejaVuSans-46"/>
     <use x="492.822266" xlink:href="#DejaVuSans-50"/>
     <use x="556.445312" xlink:href="#DejaVuSans-50"/>
     <use x="620.068359" xlink:href="#DejaVuSans-41"/>
    </g>
   </g>
   <g id="text_10">
    <!-- (0.29, 0.29) -->
    <defs>
     <path d="M 10.984375 1.515625 
L 10.984375 10.5 
Q 14.703125 8.734375 18.5 7.8125 
Q 22.3125 6.890625 25.984375 6.890625 
Q 35.75 6.890625 40.890625 13.453125 
Q 46.046875 20.015625 46.78125 33.40625 
Q 43.953125 29.203125 39.59375 26.953125 
Q 35.25 24.703125 29.984375 24.703125 
Q 19.046875 24.703125 12.671875 31.3125 
Q 6.296875 37.9375 6.296875 49.421875 
Q 6.296875 60.640625 12.9375 67.421875 
Q 19.578125 74.21875 30.609375 74.21875 
Q 43.265625 74.21875 49.921875 64.515625 
Q 56.59375 54.828125 56.59375 36.375 
Q 56.59375 19.140625 48.40625 8.859375 
Q 40.234375 -1.421875 26.421875 -1.421875 
Q 22.703125 -1.421875 18.890625 -0.6875 
Q 15.09375 0.046875 10.984375 1.515625 
z
M 30.609375 32.421875 
Q 37.25 32.421875 41.125 36.953125 
Q 45.015625 41.5 45.015625 49.421875 
Q 45.015625 57.28125 41.125 61.84375 
Q 37.25 66.40625 30.609375 66.40625 
Q 23.96875 66.40625 20.09375 61.84375 
Q 16.21875 57.28125 16.21875 49.421875 
Q 16.21875 41.5 20.09375 36.953125 
Q 23.96875 32.421875 30.609375 32.421875 
z
" id="DejaVuSans-57"/>
    </defs>
    <g transform="translate(89.535965 48.675095)scale(0.12 -0.12)">
     <use xlink:href="#DejaVuSans-40"/>
     <use x="39.013672" xlink:href="#DejaVuSans-48"/>
     <use x="102.636719" xlink:href="#DejaVuSans-46"/>
     <use x="134.423828" xlink:href="#DejaVuSans-50"/>
     <use x="198.046875" xlink:href="#DejaVuSans-57"/>
     <use x="261.669922" xlink:href="#DejaVuSans-44"/>
     <use x="293.457031" xlink:href="#DejaVuSans-32"/>
     <use x="325.244141" xlink:href="#DejaVuSans-48"/>
     <use x="388.867188" xlink:href="#DejaVuSans-46"/>
     <use x="420.654297" xlink:href="#DejaVuSans-50"/>
     <use x="484.277344" xlink:href="#DejaVuSans-57"/>
     <use x="547.900391" xlink:href="#DejaVuSans-41"/>
    </g>
   </g>
   <g id="text_11">
    <!-- (2.22, 2.22) -->
    <g transform="translate(279.336482 99.53199)scale(0.12 -0.12)">
     <use xlink:href="#DejaVuSans-40"/>
     <use x="39.013672" xlink:href="#DejaVuSans-50"/>
     <use x="102.636719" xlink:href="#DejaVuSans-46"/>
     <use x="134.423828" xlink:href="#DejaVuSans-50"/>
     <use x="198.046875" xlink:href="#DejaVuSans-50"/>
     <use x="261.669922" xlink:href="#DejaVuSans-44"/>
     <use x="293.457031" xlink:href="#DejaVuSans-32"/>
     <use x="325.244141" xlink:href="#DejaVuSans-50"/>
     <use x="388.867188" xlink:href="#DejaVuSans-46"/>
     <use x="420.654297" xlink:href="#DejaVuSans-50"/>
     <use x="484.277344" xlink:href="#DejaVuSans-50"/>
     <use x="547.900391" xlink:href="#DejaVuSans-41"/>
    </g>
   </g>
   <g id="text_12">
    <!-- (1.71, 1.71) -->
    <g transform="translate(228.479587 289.332506)scale(0.12 -0.12)">
     <use xlink:href="#DejaVuSans-40"/>
     <use x="39.013672" xlink:href="#DejaVuSans-49"/>
     <use x="102.636719" xlink:href="#DejaVuSans-46"/>
     <use x="134.423828" xlink:href="#DejaVuSans-55"/>
     <use x="198.046875" xlink:href="#DejaVuSans-49"/>
     <use x="261.669922" xlink:href="#DejaVuSans-44"/>
     <use x="293.457031" xlink:href="#DejaVuSans-32"/>
     <use x="325.244141" xlink:href="#DejaVuSans-49"/>
     <use x="388.867188" xlink:href="#DejaVuSans-46"/>
     <use x="420.654297" xlink:href="#DejaVuSans-55"/>
     <use x="484.277344" xlink:href="#DejaVuSans-49"/>
     <use x="547.900391" xlink:href="#DejaVuSans-41"/>
    </g>
   </g>
   <g id="legend_1">
    <g id="patch_7">
     <path d="M 211.313153 33.478125 
L 281.913153 33.478125 
Q 283.913153 33.478125 283.913153 31.478125 
L 283.913153 17.8 
Q 283.913153 15.8 281.913153 15.8 
L 211.313153 15.8 
Q 209.313153 15.8 209.313153 17.8 
L 209.313153 31.478125 
Q 209.313153 33.478125 211.313153 33.478125 
z
" style="fill:#ffffff;opacity:0.8;stroke:#cccccc;stroke-linejoin:miter;"/>
    </g>
    <g id="line2d_9">
     <path d="M 213.313153 23.898438 
L 233.313153 23.898438 
" style="fill:none;stroke:#ff7f0e;stroke-linecap:square;stroke-width:1.5;"/>
    </g>
    <g id="line2d_10">
     <g>
      <use style="fill:#ff7f0e;stroke:#ff7f0e;" x="223.313153" xlink:href="#mb425e04ee2" y="23.898438"/>
     </g>
    </g>
    <g id="text_13">
     <!-- $\theta$ = 75° -->
     <defs>
      <path d="M 45.515625 34.671875 
L 14.453125 34.671875 
Q 12.359375 20.0625 14.5 13.875 
Q 17.1875 6.25 24.46875 6.25 
Q 31.78125 6.25 37.359375 13.921875 
Q 42.234375 20.65625 45.515625 34.671875 
z
M 47.015625 42.96875 
Q 48.34375 56.84375 46.625 61.71875 
Q 43.953125 69.4375 36.765625 69.4375 
Q 29.296875 69.4375 23.828125 61.8125 
Q 19.53125 55.671875 16.15625 42.96875 
z
M 38.1875 76.765625 
Q 49.90625 76.765625 54.59375 66.40625 
Q 59.28125 56.109375 55.71875 37.84375 
Q 52.203125 19.625 43.453125 9.28125 
Q 34.765625 -1.125 23.046875 -1.125 
Q 11.28125 -1.125 6.640625 9.28125 
Q 2 19.625 5.515625 37.84375 
Q 9.078125 56.109375 17.71875 66.40625 
Q 26.421875 76.765625 38.1875 76.765625 
z
" id="DejaVuSans-Oblique-952"/>
      <path d="M 10.59375 45.40625 
L 73.1875 45.40625 
L 73.1875 37.203125 
L 10.59375 37.203125 
z
M 10.59375 25.484375 
L 73.1875 25.484375 
L 73.1875 17.1875 
L 10.59375 17.1875 
z
" id="DejaVuSans-61"/>
      <path d="M 10.796875 72.90625 
L 49.515625 72.90625 
L 49.515625 64.59375 
L 19.828125 64.59375 
L 19.828125 46.734375 
Q 21.96875 47.46875 24.109375 47.828125 
Q 26.265625 48.1875 28.421875 48.1875 
Q 40.625 48.1875 47.75 41.5 
Q 54.890625 34.8125 54.890625 23.390625 
Q 54.890625 11.625 47.5625 5.09375 
Q 40.234375 -1.421875 26.90625 -1.421875 
Q 22.3125 -1.421875 17.546875 -0.640625 
Q 12.796875 0.140625 7.71875 1.703125 
L 7.71875 11.625 
Q 12.109375 9.234375 16.796875 8.0625 
Q 21.484375 6.890625 26.703125 6.890625 
Q 35.15625 6.890625 40.078125 11.328125 
Q 45.015625 15.765625 45.015625 23.390625 
Q 45.015625 31 40.078125 35.4375 
Q 35.15625 39.890625 26.703125 39.890625 
Q 22.75 39.890625 18.8125 39.015625 
Q 14.890625 38.140625 10.796875 36.28125 
z
" id="DejaVuSans-53"/>
      <path d="M 25 67.921875 
Q 21.09375 67.921875 18.40625 65.203125 
Q 15.71875 62.5 15.71875 58.59375 
Q 15.71875 54.734375 18.40625 52.078125 
Q 21.09375 49.421875 25 49.421875 
Q 28.90625 49.421875 31.59375 52.078125 
Q 34.28125 54.734375 34.28125 58.59375 
Q 34.28125 62.453125 31.5625 65.1875 
Q 28.859375 67.921875 25 67.921875 
z
M 25 74.21875 
Q 28.125 74.21875 31 73.015625 
Q 33.890625 71.828125 35.984375 69.578125 
Q 38.234375 67.390625 39.359375 64.59375 
Q 40.484375 61.8125 40.484375 58.59375 
Q 40.484375 52.15625 35.96875 47.6875 
Q 31.453125 43.21875 24.90625 43.21875 
Q 18.3125 43.21875 13.90625 47.609375 
Q 9.515625 52 9.515625 58.59375 
Q 9.515625 65.140625 14 69.671875 
Q 18.5 74.21875 25 74.21875 
z
" id="DejaVuSans-176"/>
     </defs>
     <g transform="translate(241.313153 27.398438)scale(0.1 -0.1)">
      <use transform="translate(0 0.234375)" xlink:href="#DejaVuSans-Oblique-952"/>
      <use transform="translate(61.181641 0.234375)" xlink:href="#DejaVuSans-32"/>
      <use transform="translate(92.96875 0.234375)" xlink:href="#DejaVuSans-61"/>
      <use transform="translate(176.757812 0.234375)" xlink:href="#DejaVuSans-32"/>
      <use transform="translate(208.544922 0.234375)" xlink:href="#DejaVuSans-55"/>
      <use transform="translate(272.167969 0.234375)" xlink:href="#DejaVuSans-53"/>
      <use transform="translate(335.791016 0.234375)" xlink:href="#DejaVuSans-176"/>
     </g>
    </g>
   </g>
  </g>
 </g>
 <defs>
  <clipPath id="pbacb4c5232">
   <rect height="321.32" width="264.723153" x="24.19" y="10.8"/>
  </clipPath>
 </defs>
</svg>
