<?xml version="1.0" encoding="utf-8" standalone="no"?>
<!DOCTYPE svg PUBLIC "-//W3C//DTD SVG 1.1//EN"
  "http://www.w3.org/Graphics/SVG/1.1/DTD/svg11.dtd">
<svg xmlns:xlink="http://www.w3.org/1999/xlink" width="360pt" height="360pt" viewBox="0 0 360 360" xmlns="http://www.w3.org/2000/svg" version="1.1">
 <metadata>
  <rdf:RDF xmlns:dc="http://purl.org/dc/elements/1.1/" xmlns:cc="http://creativecommons.org/ns#" xmlns:rdf="http://www.w3.org/1999/02/22-rdf-syntax-ns#">
   <cc:Work>
    <dc:type rdf:resource="http://purl.org/dc/dcmitype/StillImage"/>
    <dc:date>2024-07-12T11:04:42.089928</dc:date>
    <dc:format>image/svg+xml</dc:format>
    <dc:creator>
     <cc:Agent>
      <dc:title>Matplotlib v3.9.1, https://matplotlib.org/</dc:title>
     </cc:Agent>
    </dc:creator>
   </cc:Work>
  </rdf:RDF>
 </metadata>
 <defs>
  <style type="text/css">*{stroke-linejoin: round; stroke-linecap: butt}</style>
 </defs>
 <g id="figure_1">
  <g id="patch_1">
   <path d="M 0 360 
L 360 360 
L 360 0 
L 0 0 
z
" style="fill: #ffffff"/>
  </g>
  <g id="axes_1">
   <g id="patch_2">
    <path d="M 27.61 327.44 
L 299.941364 327.44 
L 299.941364 14.068636 
L 27.61 14.068636 
z
" style="fill: #ffffff"/>
   </g>
   <g id="matplotlib.axis_1">
    <g id="xtick_1">
     <g id="line2d_1">
      <defs>
       <path id="m4564b63070" d="M 0 0 
L 0 3.5 
" style="stroke: #000000; stroke-width: 0.8"/>
      </defs>
      <g>
       <use xlink:href="#m4564b63070" x="39.988698" y="327.44" style="stroke: #000000; stroke-width: 0.8"/>
      </g>
     </g>
     <g id="text_1">
      <!-- 0 -->
      <g transform="translate(36.738698 343.466875) scale(0.13 -0.13)">
       <defs>
        <path id="TimesNewRomanPSMT-30" d="M 231 2094 
Q 231 2819 450 3342 
Q 669 3866 1031 4122 
Q 1313 4325 1613 4325 
Q 2100 4325 2488 3828 
Q 2972 3213 2972 2159 
Q 2972 1422 2759 906 
Q 2547 391 2217 158 
Q 1888 -75 1581 -75 
Q 975 -75 572 641 
Q 231 1244 231 2094 
z
M 844 2016 
Q 844 1141 1059 588 
Q 1238 122 1591 122 
Q 1759 122 1940 273 
Q 2122 425 2216 781 
Q 2359 1319 2359 2297 
Q 2359 3022 2209 3506 
Q 2097 3866 1919 4016 
Q 1791 4119 1609 4119 
Q 1397 4119 1231 3928 
Q 1006 3669 925 3112 
Q 844 2556 844 2016 
z
" transform="scale(0.015625)"/>
       </defs>
       <use xlink:href="#TimesNewRomanPSMT-30"/>
      </g>
     </g>
    </g>
    <g id="xtick_2">
     <g id="line2d_2">
      <g>
       <use xlink:href="#m4564b63070" x="163.775682" y="327.44" style="stroke: #000000; stroke-width: 0.8"/>
      </g>
     </g>
     <g id="text_2">
      <!-- 1 -->
      <g transform="translate(160.525682 343.466875) scale(0.13 -0.13)">
       <defs>
        <path id="TimesNewRomanPSMT-31" d="M 750 3822 
L 1781 4325 
L 1884 4325 
L 1884 747 
Q 1884 391 1914 303 
Q 1944 216 2037 169 
Q 2131 122 2419 116 
L 2419 0 
L 825 0 
L 825 116 
Q 1125 122 1212 167 
Q 1300 213 1334 289 
Q 1369 366 1369 747 
L 1369 3034 
Q 1369 3497 1338 3628 
Q 1316 3728 1258 3775 
Q 1200 3822 1119 3822 
Q 1003 3822 797 3725 
L 750 3822 
z
" transform="scale(0.015625)"/>
       </defs>
       <use xlink:href="#TimesNewRomanPSMT-31"/>
      </g>
     </g>
    </g>
    <g id="xtick_3">
     <g id="line2d_3">
      <g>
       <use xlink:href="#m4564b63070" x="287.562665" y="327.44" style="stroke: #000000; stroke-width: 0.8"/>
      </g>
     </g>
     <g id="text_3">
      <!-- 2 -->
      <g transform="translate(284.312665 343.466875) scale(0.13 -0.13)">
       <defs>
        <path id="TimesNewRomanPSMT-32" d="M 2934 816 
L 2638 0 
L 138 0 
L 138 116 
Q 1241 1122 1691 1759 
Q 2141 2397 2141 2925 
Q 2141 3328 1894 3587 
Q 1647 3847 1303 3847 
Q 991 3847 742 3664 
Q 494 3481 375 3128 
L 259 3128 
Q 338 3706 661 4015 
Q 984 4325 1469 4325 
Q 1984 4325 2329 3994 
Q 2675 3663 2675 3213 
Q 2675 2891 2525 2569 
Q 2294 2063 1775 1497 
Q 997 647 803 472 
L 1909 472 
Q 2247 472 2383 497 
Q 2519 522 2628 598 
Q 2738 675 2819 816 
L 2934 816 
z
" transform="scale(0.015625)"/>
       </defs>
       <use xlink:href="#TimesNewRomanPSMT-32"/>
      </g>
     </g>
    </g>
   </g>
   <g id="matplotlib.axis_2">
    <g id="ytick_1">
     <g id="line2d_4">
      <defs>
       <path id="mc45d6547d6" d="M 0 0 
L -3.5 0 
" style="stroke: #000000; stroke-width: 0.8"/>
      </defs>
      <g>
       <use xlink:href="#mc45d6547d6" x="27.61" y="294.541302" style="stroke: #000000; stroke-width: 0.8"/>
      </g>
     </g>
     <g id="text_4">
      <!-- 0 -->
      <g transform="translate(14.11 299.054739) scale(0.13 -0.13)">
       <use xlink:href="#TimesNewRomanPSMT-30"/>
      </g>
     </g>
    </g>
    <g id="ytick_2">
     <g id="line2d_5">
      <g>
       <use xlink:href="#mc45d6547d6" x="27.61" y="170.754318" style="stroke: #000000; stroke-width: 0.8"/>
      </g>
     </g>
     <g id="text_5">
      <!-- 1 -->
      <g transform="translate(14.11 175.267756) scale(0.13 -0.13)">
       <use xlink:href="#TimesNewRomanPSMT-31"/>
      </g>
     </g>
    </g>
    <g id="ytick_3">
     <g id="line2d_6">
      <g>
       <use xlink:href="#mc45d6547d6" x="27.61" y="46.967335" style="stroke: #000000; stroke-width: 0.8"/>
      </g>
     </g>
     <g id="text_6">
      <!-- 2 -->
      <g transform="translate(14.11 51.480772) scale(0.13 -0.13)">
       <use xlink:href="#TimesNewRomanPSMT-32"/>
      </g>
     </g>
    </g>
   </g>
   <g id="line2d_7">
    <defs>
     <path id="mc31ce57357" d="M 0 5 
C 1.326016 5 2.597899 4.473168 3.535534 3.535534 
C 4.473168 2.597899 5 1.326016 5 0 
C 5 -1.326016 4.473168 -2.597899 3.535534 -3.535534 
C 2.597899 -4.473168 1.326016 -5 0 -5 
C -1.326016 -5 -2.597899 -4.473168 -3.535534 -3.535534 
C -4.473168 -2.597899 -5 -1.326016 -5 0 
C -5 1.326016 -4.473168 2.597899 -3.535534 3.535534 
C -2.597899 4.473168 -1.326016 5 0 5 
z
" style="stroke: #1f77b4"/>
    </defs>
    <g clip-path="url(#p6e3f803cfb)">
     <use xlink:href="#mc31ce57357" x="163.775682" y="170.754318" style="fill: #1f77b4; stroke: #1f77b4"/>
    </g>
   </g>
   <g id="line2d_8">
    <path d="M 39.988698 294.541302 
L 39.988698 46.967335 
L 287.562665 46.967335 
L 287.562665 294.541302 
L 39.988698 294.541302 
" clip-path="url(#p6e3f803cfb)" style="fill: none; stroke: #ff7f0e; stroke-width: 1.5; stroke-linecap: square"/>
    <defs>
     <path id="ma3c6ba3bde" d="M 0 3 
C 0.795609 3 1.55874 2.683901 2.12132 2.12132 
C 2.683901 1.55874 3 0.795609 3 0 
C 3 -0.795609 2.683901 -1.55874 2.12132 -2.12132 
C 1.55874 -2.683901 0.795609 -3 0 -3 
C -0.795609 -3 -1.55874 -2.683901 -2.12132 -2.12132 
C -2.683901 -1.55874 -3 -0.795609 -3 0 
C -3 0.795609 -2.683901 1.55874 -2.12132 2.12132 
C -1.55874 2.683901 -0.795609 3 0 3 
z
" style="stroke: #ff7f0e"/>
    </defs>
    <g clip-path="url(#p6e3f803cfb)">
     <use xlink:href="#ma3c6ba3bde" x="39.988698" y="294.541302" style="fill: #ff7f0e; stroke: #ff7f0e"/>
     <use xlink:href="#ma3c6ba3bde" x="39.988698" y="46.967335" style="fill: #ff7f0e; stroke: #ff7f0e"/>
     <use xlink:href="#ma3c6ba3bde" x="287.562665" y="46.967335" style="fill: #ff7f0e; stroke: #ff7f0e"/>
     <use xlink:href="#ma3c6ba3bde" x="287.562665" y="294.541302" style="fill: #ff7f0e; stroke: #ff7f0e"/>
     <use xlink:href="#ma3c6ba3bde" x="39.988698" y="294.541302" style="fill: #ff7f0e; stroke: #ff7f0e"/>
    </g>
   </g>
   <g id="patch_3">
    <path d="M 27.61 327.44 
L 27.61 14.068636 
" style="fill: none; stroke: #000000; stroke-width: 0.8; stroke-linejoin: miter; stroke-linecap: square"/>
   </g>
   <g id="patch_4">
    <path d="M 299.941364 327.44 
L 299.941364 14.068636 
" style="fill: none; stroke: #000000; stroke-width: 0.8; stroke-linejoin: miter; stroke-linecap: square"/>
   </g>
   <g id="patch_5">
    <path d="M 27.61 327.44 
L 299.941364 327.44 
" style="fill: none; stroke: #000000; stroke-width: 0.8; stroke-linejoin: miter; stroke-linecap: square"/>
   </g>
   <g id="patch_6">
    <path d="M 27.61 14.068636 
L 299.941364 14.068636 
" style="fill: none; stroke: #000000; stroke-width: 0.8; stroke-linejoin: miter; stroke-linecap: square"/>
   </g>
   <g id="text_7">
    <!-- (1.00, 1.00) -->
    <g transform="translate(166.870356 167.659644) scale(0.12 -0.12)">
     <defs>
      <path id="TimesNewRomanPSMT-28" d="M 1988 -1253 
L 1988 -1369 
Q 1516 -1131 1200 -813 
Q 750 -359 506 256 
Q 263 872 263 1534 
Q 263 2503 741 3301 
Q 1219 4100 1988 4444 
L 1988 4313 
Q 1603 4100 1356 3731 
Q 1109 3363 987 2797 
Q 866 2231 866 1616 
Q 866 947 969 400 
Q 1050 -31 1165 -292 
Q 1281 -553 1476 -793 
Q 1672 -1034 1988 -1253 
z
" transform="scale(0.015625)"/>
      <path id="TimesNewRomanPSMT-2e" d="M 800 606 
Q 947 606 1047 504 
Q 1147 403 1147 259 
Q 1147 116 1045 14 
Q 944 -88 800 -88 
Q 656 -88 554 14 
Q 453 116 453 259 
Q 453 406 554 506 
Q 656 606 800 606 
z
" transform="scale(0.015625)"/>
      <path id="TimesNewRomanPSMT-2c" d="M 344 -1066 
L 344 -928 
Q 666 -822 842 -598 
Q 1019 -375 1019 -125 
Q 1019 -66 991 -25 
Q 969 3 947 3 
Q 913 3 797 -59 
Q 741 -88 678 -88 
Q 525 -88 434 3 
Q 344 94 344 253 
Q 344 406 461 515 
Q 578 625 747 625 
Q 953 625 1114 445 
Q 1275 266 1275 -31 
Q 1275 -353 1051 -629 
Q 828 -906 344 -1066 
z
" transform="scale(0.015625)"/>
      <path id="TimesNewRomanPSMT-20" transform="scale(0.015625)"/>
      <path id="TimesNewRomanPSMT-29" d="M 144 4313 
L 144 4444 
Q 619 4209 934 3891 
Q 1381 3434 1625 2820 
Q 1869 2206 1869 1541 
Q 1869 572 1392 -226 
Q 916 -1025 144 -1369 
L 144 -1253 
Q 528 -1038 776 -670 
Q 1025 -303 1145 264 
Q 1266 831 1266 1447 
Q 1266 2113 1163 2663 
Q 1084 3094 967 3353 
Q 850 3613 656 3853 
Q 463 4094 144 4313 
z
" transform="scale(0.015625)"/>
     </defs>
     <use xlink:href="#TimesNewRomanPSMT-28"/>
     <use xlink:href="#TimesNewRomanPSMT-31" x="33.300781"/>
     <use xlink:href="#TimesNewRomanPSMT-2e" x="83.300781"/>
     <use xlink:href="#TimesNewRomanPSMT-30" x="108.300781"/>
     <use xlink:href="#TimesNewRomanPSMT-30" x="158.300781"/>
     <use xlink:href="#TimesNewRomanPSMT-2c" x="208.300781"/>
     <use xlink:href="#TimesNewRomanPSMT-20" x="233.300781"/>
     <use xlink:href="#TimesNewRomanPSMT-31" x="258.300781"/>
     <use xlink:href="#TimesNewRomanPSMT-2e" x="308.300781"/>
     <use xlink:href="#TimesNewRomanPSMT-30" x="333.300781"/>
     <use xlink:href="#TimesNewRomanPSMT-30" x="383.300781"/>
     <use xlink:href="#TimesNewRomanPSMT-29" x="433.300781"/>
    </g>
   </g>
   <g id="text_8">
    <!-- (0.00, 0.00) -->
    <g transform="translate(43.083373 291.446627) scale(0.12 -0.12)">
     <use xlink:href="#TimesNewRomanPSMT-28"/>
     <use xlink:href="#TimesNewRomanPSMT-30" x="33.300781"/>
     <use xlink:href="#TimesNewRomanPSMT-2e" x="83.300781"/>
     <use xlink:href="#TimesNewRomanPSMT-30" x="108.300781"/>
     <use xlink:href="#TimesNewRomanPSMT-30" x="158.300781"/>
     <use xlink:href="#TimesNewRomanPSMT-2c" x="208.300781"/>
     <use xlink:href="#TimesNewRomanPSMT-20" x="233.300781"/>
     <use xlink:href="#TimesNewRomanPSMT-30" x="258.300781"/>
     <use xlink:href="#TimesNewRomanPSMT-2e" x="308.300781"/>
     <use xlink:href="#TimesNewRomanPSMT-30" x="333.300781"/>
     <use xlink:href="#TimesNewRomanPSMT-30" x="383.300781"/>
     <use xlink:href="#TimesNewRomanPSMT-29" x="433.300781"/>
    </g>
   </g>
   <g id="text_9">
    <!-- (0.00, 0.00) -->
    <g transform="translate(43.083373 43.87266) scale(0.12 -0.12)">
     <use xlink:href="#TimesNewRomanPSMT-28"/>
     <use xlink:href="#TimesNewRomanPSMT-30" x="33.300781"/>
     <use xlink:href="#TimesNewRomanPSMT-2e" x="83.300781"/>
     <use xlink:href="#TimesNewRomanPSMT-30" x="108.300781"/>
     <use xlink:href="#TimesNewRomanPSMT-30" x="158.300781"/>
     <use xlink:href="#TimesNewRomanPSMT-2c" x="208.300781"/>
     <use xlink:href="#TimesNewRomanPSMT-20" x="233.300781"/>
     <use xlink:href="#TimesNewRomanPSMT-30" x="258.300781"/>
     <use xlink:href="#TimesNewRomanPSMT-2e" x="308.300781"/>
     <use xlink:href="#TimesNewRomanPSMT-30" x="333.300781"/>
     <use xlink:href="#TimesNewRomanPSMT-30" x="383.300781"/>
     <use xlink:href="#TimesNewRomanPSMT-29" x="433.300781"/>
    </g>
   </g>
   <g id="text_10">
    <!-- (2.00, 2.00) -->
    <g transform="translate(290.65734 43.87266) scale(0.12 -0.12)">
     <use xlink:href="#TimesNewRomanPSMT-28"/>
     <use xlink:href="#TimesNewRomanPSMT-32" x="33.300781"/>
     <use xlink:href="#TimesNewRomanPSMT-2e" x="83.300781"/>
     <use xlink:href="#TimesNewRomanPSMT-30" x="108.300781"/>
     <use xlink:href="#TimesNewRomanPSMT-30" x="158.300781"/>
     <use xlink:href="#TimesNewRomanPSMT-2c" x="208.300781"/>
     <use xlink:href="#TimesNewRomanPSMT-20" x="233.300781"/>
     <use xlink:href="#TimesNewRomanPSMT-32" x="258.300781"/>
     <use xlink:href="#TimesNewRomanPSMT-2e" x="308.300781"/>
     <use xlink:href="#TimesNewRomanPSMT-30" x="333.300781"/>
     <use xlink:href="#TimesNewRomanPSMT-30" x="383.300781"/>
     <use xlink:href="#TimesNewRomanPSMT-29" x="433.300781"/>
    </g>
   </g>
   <g id="text_11">
    <!-- (2.00, 2.00) -->
    <g transform="translate(290.65734 291.446627) scale(0.12 -0.12)">
     <use xlink:href="#TimesNewRomanPSMT-28"/>
     <use xlink:href="#TimesNewRomanPSMT-32" x="33.300781"/>
     <use xlink:href="#TimesNewRomanPSMT-2e" x="83.300781"/>
     <use xlink:href="#TimesNewRomanPSMT-30" x="108.300781"/>
     <use xlink:href="#TimesNewRomanPSMT-30" x="158.300781"/>
     <use xlink:href="#TimesNewRomanPSMT-2c" x="208.300781"/>
     <use xlink:href="#TimesNewRomanPSMT-20" x="233.300781"/>
     <use xlink:href="#TimesNewRomanPSMT-32" x="258.300781"/>
     <use xlink:href="#TimesNewRomanPSMT-2e" x="308.300781"/>
     <use xlink:href="#TimesNewRomanPSMT-30" x="333.300781"/>
     <use xlink:href="#TimesNewRomanPSMT-30" x="383.300781"/>
     <use xlink:href="#TimesNewRomanPSMT-29" x="433.300781"/>
    </g>
   </g>
   <g id="text_12">
    <!-- (0.00, 0.00) -->
    <g transform="translate(43.083373 291.446627) scale(0.12 -0.12)">
     <use xlink:href="#TimesNewRomanPSMT-28"/>
     <use xlink:href="#TimesNewRomanPSMT-30" x="33.300781"/>
     <use xlink:href="#TimesNewRomanPSMT-2e" x="83.300781"/>
     <use xlink:href="#TimesNewRomanPSMT-30" x="108.300781"/>
     <use xlink:href="#TimesNewRomanPSMT-30" x="158.300781"/>
     <use xlink:href="#TimesNewRomanPSMT-2c" x="208.300781"/>
     <use xlink:href="#TimesNewRomanPSMT-20" x="233.300781"/>
     <use xlink:href="#TimesNewRomanPSMT-30" x="258.300781"/>
     <use xlink:href="#TimesNewRomanPSMT-2e" x="308.300781"/>
     <use xlink:href="#TimesNewRomanPSMT-30" x="333.300781"/>
     <use xlink:href="#TimesNewRomanPSMT-30" x="383.300781"/>
     <use xlink:href="#TimesNewRomanPSMT-29" x="433.300781"/>
    </g>
   </g>
  </g>
 </g>
 <defs>
  <clipPath id="p6e3f803cfb">
   <rect x="27.61" y="14.068636" width="272.331364" height="313.371364"/>
  </clipPath>
 </defs>
</svg>
