<?xml version="1.0" encoding="utf-8" standalone="no"?>
<!DOCTYPE svg PUBLIC "-//W3C//DTD SVG 1.1//EN"
  "http://www.w3.org/Graphics/SVG/1.1/DTD/svg11.dtd">
<svg xmlns:xlink="http://www.w3.org/1999/xlink" width="360pt" height="360pt" viewBox="0 0 360 360" xmlns="http://www.w3.org/2000/svg" version="1.1">
 <metadata>
  <rdf:RDF xmlns:dc="http://purl.org/dc/elements/1.1/" xmlns:cc="http://creativecommons.org/ns#" xmlns:rdf="http://www.w3.org/1999/02/22-rdf-syntax-ns#">
   <cc:Work>
    <dc:type rdf:resource="http://purl.org/dc/dcmitype/StillImage"/>
    <dc:date>2024-07-12T11:05:48.285989</dc:date>
    <dc:format>image/svg+xml</dc:format>
    <dc:creator>
     <cc:Agent>
      <dc:title>Matplotlib v3.9.1, https://matplotlib.org/</dc:title>
     </cc:Agent>
    </dc:creator>
   </cc:Work>
  </rdf:RDF>
 </metadata>
 <defs>
  <style type="text/css">*{stroke-linejoin: round; stroke-linecap: butt}</style>
 </defs>
 <g id="figure_1">
  <g id="patch_1">
   <path d="M 0 360 
L 360 360 
L 360 0 
L 0 0 
z
" style="fill: #ffffff"/>
  </g>
  <g id="axes_1">
   <g id="patch_2">
    <path d="M 27.61 327.44 
L 300.883153 327.44 
L 300.883153 14.04 
L 27.61 14.04 
z
" style="fill: #ffffff"/>
   </g>
   <g id="matplotlib.axis_1">
    <g id="xtick_1">
     <g id="line2d_1">
      <defs>
       <path id="m1ad6f2ecb0" d="M 0 0 
L 0 3.5 
" style="stroke: #000000; stroke-width: 0.8"/>
      </defs>
      <g>
       <use xlink:href="#m1ad6f2ecb0" x="62.825397" y="327.44" style="stroke: #000000; stroke-width: 0.8"/>
      </g>
     </g>
     <g id="text_1">
      <!-- 0 -->
      <g transform="translate(59.575397 343.466875) scale(0.13 -0.13)">
       <defs>
        <path id="TimesNewRomanPSMT-30" d="M 231 2094 
Q 231 2819 450 3342 
Q 669 3866 1031 4122 
Q 1313 4325 1613 4325 
Q 2100 4325 2488 3828 
Q 2972 3213 2972 2159 
Q 2972 1422 2759 906 
Q 2547 391 2217 158 
Q 1888 -75 1581 -75 
Q 975 -75 572 641 
Q 231 1244 231 2094 
z
M 844 2016 
Q 844 1141 1059 588 
Q 1238 122 1591 122 
Q 1759 122 1940 273 
Q 2122 425 2216 781 
Q 2359 1319 2359 2297 
Q 2359 3022 2209 3506 
Q 2097 3866 1919 4016 
Q 1791 4119 1609 4119 
Q 1397 4119 1231 3928 
Q 1006 3669 925 3112 
Q 844 2556 844 2016 
z
" transform="scale(0.015625)"/>
       </defs>
       <use xlink:href="#TimesNewRomanPSMT-30"/>
      </g>
     </g>
    </g>
    <g id="xtick_2">
     <g id="line2d_2">
      <g>
       <use xlink:href="#m1ad6f2ecb0" x="164.246576" y="327.44" style="stroke: #000000; stroke-width: 0.8"/>
      </g>
     </g>
     <g id="text_2">
      <!-- 1 -->
      <g transform="translate(160.996576 343.466875) scale(0.13 -0.13)">
       <defs>
        <path id="TimesNewRomanPSMT-31" d="M 750 3822 
L 1781 4325 
L 1884 4325 
L 1884 747 
Q 1884 391 1914 303 
Q 1944 216 2037 169 
Q 2131 122 2419 116 
L 2419 0 
L 825 0 
L 825 116 
Q 1125 122 1212 167 
Q 1300 213 1334 289 
Q 1369 366 1369 747 
L 1369 3034 
Q 1369 3497 1338 3628 
Q 1316 3728 1258 3775 
Q 1200 3822 1119 3822 
Q 1003 3822 797 3725 
L 750 3822 
z
" transform="scale(0.015625)"/>
       </defs>
       <use xlink:href="#TimesNewRomanPSMT-31"/>
      </g>
     </g>
    </g>
    <g id="xtick_3">
     <g id="line2d_3">
      <g>
       <use xlink:href="#m1ad6f2ecb0" x="265.667756" y="327.44" style="stroke: #000000; stroke-width: 0.8"/>
      </g>
     </g>
     <g id="text_3">
      <!-- 2 -->
      <g transform="translate(262.417756 343.466875) scale(0.13 -0.13)">
       <defs>
        <path id="TimesNewRomanPSMT-32" d="M 2934 816 
L 2638 0 
L 138 0 
L 138 116 
Q 1241 1122 1691 1759 
Q 2141 2397 2141 2925 
Q 2141 3328 1894 3587 
Q 1647 3847 1303 3847 
Q 991 3847 742 3664 
Q 494 3481 375 3128 
L 259 3128 
Q 338 3706 661 4015 
Q 984 4325 1469 4325 
Q 1984 4325 2329 3994 
Q 2675 3663 2675 3213 
Q 2675 2891 2525 2569 
Q 2294 2063 1775 1497 
Q 997 647 803 472 
L 1909 472 
Q 2247 472 2383 497 
Q 2519 522 2628 598 
Q 2738 675 2819 816 
L 2934 816 
z
" transform="scale(0.015625)"/>
       </defs>
       <use xlink:href="#TimesNewRomanPSMT-32"/>
      </g>
     </g>
    </g>
   </g>
   <g id="matplotlib.axis_2">
    <g id="ytick_1">
     <g id="line2d_4">
      <defs>
       <path id="mc0028110da" d="M 0 0 
L -3.5 0 
" style="stroke: #000000; stroke-width: 0.8"/>
      </defs>
      <g>
       <use xlink:href="#mc0028110da" x="27.61" y="272.16118" style="stroke: #000000; stroke-width: 0.8"/>
      </g>
     </g>
     <g id="text_4">
      <!-- 0 -->
      <g transform="translate(14.11 276.674617) scale(0.13 -0.13)">
       <use xlink:href="#TimesNewRomanPSMT-30"/>
      </g>
     </g>
    </g>
    <g id="ytick_2">
     <g id="line2d_5">
      <g>
       <use xlink:href="#mc0028110da" x="27.61" y="170.74" style="stroke: #000000; stroke-width: 0.8"/>
      </g>
     </g>
     <g id="text_5">
      <!-- 1 -->
      <g transform="translate(14.11 175.253438) scale(0.13 -0.13)">
       <use xlink:href="#TimesNewRomanPSMT-31"/>
      </g>
     </g>
    </g>
    <g id="ytick_3">
     <g id="line2d_6">
      <g>
       <use xlink:href="#mc0028110da" x="27.61" y="69.31882" style="stroke: #000000; stroke-width: 0.8"/>
      </g>
     </g>
     <g id="text_6">
      <!-- 2 -->
      <g transform="translate(14.11 73.832258) scale(0.13 -0.13)">
       <use xlink:href="#TimesNewRomanPSMT-32"/>
      </g>
     </g>
    </g>
   </g>
   <g id="line2d_7">
    <defs>
     <path id="mffa89a9963" d="M 0 5 
C 1.326016 5 2.597899 4.473168 3.535534 3.535534 
C 4.473168 2.597899 5 1.326016 5 0 
C 5 -1.326016 4.473168 -2.597899 3.535534 -3.535534 
C 2.597899 -4.473168 1.326016 -5 0 -5 
C -1.326016 -5 -2.597899 -4.473168 -3.535534 -3.535534 
C -4.473168 -2.597899 -5 -1.326016 -5 0 
C -5 1.326016 -4.473168 2.597899 -3.535534 3.535534 
C -2.597899 4.473168 -1.326016 5 0 5 
z
" style="stroke: #1f77b4"/>
    </defs>
    <g clip-path="url(#pc8c7a74aec)">
     <use xlink:href="#mffa89a9963" x="164.246576" y="170.74" style="fill: #1f77b4; stroke: #1f77b4"/>
    </g>
   </g>
   <g id="line2d_8">
    <path d="M 235.96218 294.955069 
L 40.031507 242.455604 
L 92.530973 46.524931 
L 288.461646 99.024396 
L 235.96218 294.955069 
" clip-path="url(#pc8c7a74aec)" style="fill: none; stroke: #ff7f0e; stroke-width: 1.5; stroke-linecap: square"/>
    <defs>
     <path id="m0c71dc1c28" d="M 0 3 
C 0.795609 3 1.55874 2.683901 2.12132 2.12132 
C 2.683901 1.55874 3 0.795609 3 0 
C 3 -0.795609 2.683901 -1.55874 2.12132 -2.12132 
C 1.55874 -2.683901 0.795609 -3 0 -3 
C -0.795609 -3 -1.55874 -2.683901 -2.12132 -2.12132 
C -2.683901 -1.55874 -3 -0.795609 -3 0 
C -3 0.795609 -2.683901 1.55874 -2.12132 2.12132 
C -1.55874 2.683901 -0.795609 3 0 3 
z
" style="stroke: #ff7f0e"/>
    </defs>
    <g clip-path="url(#pc8c7a74aec)">
     <use xlink:href="#m0c71dc1c28" x="235.96218" y="294.955069" style="fill: #ff7f0e; stroke: #ff7f0e"/>
     <use xlink:href="#m0c71dc1c28" x="40.031507" y="242.455604" style="fill: #ff7f0e; stroke: #ff7f0e"/>
     <use xlink:href="#m0c71dc1c28" x="92.530973" y="46.524931" style="fill: #ff7f0e; stroke: #ff7f0e"/>
     <use xlink:href="#m0c71dc1c28" x="288.461646" y="99.024396" style="fill: #ff7f0e; stroke: #ff7f0e"/>
     <use xlink:href="#m0c71dc1c28" x="235.96218" y="294.955069" style="fill: #ff7f0e; stroke: #ff7f0e"/>
    </g>
   </g>
   <g id="patch_3">
    <path d="M 27.61 327.44 
L 27.61 14.04 
" style="fill: none; stroke: #000000; stroke-width: 0.8; stroke-linejoin: miter; stroke-linecap: square"/>
   </g>
   <g id="patch_4">
    <path d="M 300.883153 327.44 
L 300.883153 14.04 
" style="fill: none; stroke: #000000; stroke-width: 0.8; stroke-linejoin: miter; stroke-linecap: square"/>
   </g>
   <g id="patch_5">
    <path d="M 27.61 327.44 
L 300.883153 327.44 
" style="fill: none; stroke: #000000; stroke-width: 0.8; stroke-linejoin: miter; stroke-linecap: square"/>
   </g>
   <g id="patch_6">
    <path d="M 27.61 14.04 
L 300.883153 14.04 
" style="fill: none; stroke: #000000; stroke-width: 0.8; stroke-linejoin: miter; stroke-linecap: square"/>
   </g>
   <g id="text_7">
    <!-- (1.00, 1.00) -->
    <g transform="translate(166.782106 168.204471) scale(0.12 -0.12)">
     <defs>
      <path id="TimesNewRomanPSMT-28" d="M 1988 -1253 
L 1988 -1369 
Q 1516 -1131 1200 -813 
Q 750 -359 506 256 
Q 263 872 263 1534 
Q 263 2503 741 3301 
Q 1219 4100 1988 4444 
L 1988 4313 
Q 1603 4100 1356 3731 
Q 1109 3363 987 2797 
Q 866 2231 866 1616 
Q 866 947 969 400 
Q 1050 -31 1165 -292 
Q 1281 -553 1476 -793 
Q 1672 -1034 1988 -1253 
z
" transform="scale(0.015625)"/>
      <path id="TimesNewRomanPSMT-2e" d="M 800 606 
Q 947 606 1047 504 
Q 1147 403 1147 259 
Q 1147 116 1045 14 
Q 944 -88 800 -88 
Q 656 -88 554 14 
Q 453 116 453 259 
Q 453 406 554 506 
Q 656 606 800 606 
z
" transform="scale(0.015625)"/>
      <path id="TimesNewRomanPSMT-2c" d="M 344 -1066 
L 344 -928 
Q 666 -822 842 -598 
Q 1019 -375 1019 -125 
Q 1019 -66 991 -25 
Q 969 3 947 3 
Q 913 3 797 -59 
Q 741 -88 678 -88 
Q 525 -88 434 3 
Q 344 94 344 253 
Q 344 406 461 515 
Q 578 625 747 625 
Q 953 625 1114 445 
Q 1275 266 1275 -31 
Q 1275 -353 1051 -629 
Q 828 -906 344 -1066 
z
" transform="scale(0.015625)"/>
      <path id="TimesNewRomanPSMT-20" transform="scale(0.015625)"/>
      <path id="TimesNewRomanPSMT-29" d="M 144 4313 
L 144 4444 
Q 619 4209 934 3891 
Q 1381 3434 1625 2820 
Q 1869 2206 1869 1541 
Q 1869 572 1392 -226 
Q 916 -1025 144 -1369 
L 144 -1253 
Q 528 -1038 776 -670 
Q 1025 -303 1145 264 
Q 1266 831 1266 1447 
Q 1266 2113 1163 2663 
Q 1084 3094 967 3353 
Q 850 3613 656 3853 
Q 463 4094 144 4313 
z
" transform="scale(0.015625)"/>
     </defs>
     <use xlink:href="#TimesNewRomanPSMT-28"/>
     <use xlink:href="#TimesNewRomanPSMT-31" x="33.300781"/>
     <use xlink:href="#TimesNewRomanPSMT-2e" x="83.300781"/>
     <use xlink:href="#TimesNewRomanPSMT-30" x="108.300781"/>
     <use xlink:href="#TimesNewRomanPSMT-30" x="158.300781"/>
     <use xlink:href="#TimesNewRomanPSMT-2c" x="208.300781"/>
     <use xlink:href="#TimesNewRomanPSMT-20" x="233.300781"/>
     <use xlink:href="#TimesNewRomanPSMT-31" x="258.300781"/>
     <use xlink:href="#TimesNewRomanPSMT-2e" x="308.300781"/>
     <use xlink:href="#TimesNewRomanPSMT-30" x="333.300781"/>
     <use xlink:href="#TimesNewRomanPSMT-30" x="383.300781"/>
     <use xlink:href="#TimesNewRomanPSMT-29" x="433.300781"/>
    </g>
   </g>
   <g id="text_8">
    <!-- (1.71, 1.71) -->
    <g transform="translate(238.49771 292.41954) scale(0.12 -0.12)">
     <defs>
      <path id="TimesNewRomanPSMT-37" d="M 644 4238 
L 2916 4238 
L 2916 4119 
L 1503 -88 
L 1153 -88 
L 2419 3728 
L 1253 3728 
Q 900 3728 750 3644 
Q 488 3500 328 3200 
L 238 3234 
L 644 4238 
z
" transform="scale(0.015625)"/>
     </defs>
     <use xlink:href="#TimesNewRomanPSMT-28"/>
     <use xlink:href="#TimesNewRomanPSMT-31" x="33.300781"/>
     <use xlink:href="#TimesNewRomanPSMT-2e" x="83.300781"/>
     <use xlink:href="#TimesNewRomanPSMT-37" x="108.300781"/>
     <use xlink:href="#TimesNewRomanPSMT-31" x="158.300781"/>
     <use xlink:href="#TimesNewRomanPSMT-2c" x="208.300781"/>
     <use xlink:href="#TimesNewRomanPSMT-20" x="233.300781"/>
     <use xlink:href="#TimesNewRomanPSMT-31" x="258.300781"/>
     <use xlink:href="#TimesNewRomanPSMT-2e" x="308.300781"/>
     <use xlink:href="#TimesNewRomanPSMT-37" x="333.300781"/>
     <use xlink:href="#TimesNewRomanPSMT-31" x="383.300781"/>
     <use xlink:href="#TimesNewRomanPSMT-29" x="433.300781"/>
    </g>
   </g>
   <g id="text_9">
    <!-- (-0.22, -0.22) -->
    <g transform="translate(42.567036 239.920074) scale(0.12 -0.12)">
     <defs>
      <path id="TimesNewRomanPSMT-2d" d="M 259 1672 
L 1875 1672 
L 1875 1200 
L 259 1200 
L 259 1672 
z
" transform="scale(0.015625)"/>
     </defs>
     <use xlink:href="#TimesNewRomanPSMT-28"/>
     <use xlink:href="#TimesNewRomanPSMT-2d" x="33.300781"/>
     <use xlink:href="#TimesNewRomanPSMT-30" x="66.601562"/>
     <use xlink:href="#TimesNewRomanPSMT-2e" x="116.601562"/>
     <use xlink:href="#TimesNewRomanPSMT-32" x="141.601562"/>
     <use xlink:href="#TimesNewRomanPSMT-32" x="191.601562"/>
     <use xlink:href="#TimesNewRomanPSMT-2c" x="241.601562"/>
     <use xlink:href="#TimesNewRomanPSMT-20" x="266.601562"/>
     <use xlink:href="#TimesNewRomanPSMT-2d" x="291.601562"/>
     <use xlink:href="#TimesNewRomanPSMT-30" x="324.902344"/>
     <use xlink:href="#TimesNewRomanPSMT-2e" x="374.902344"/>
     <use xlink:href="#TimesNewRomanPSMT-32" x="399.902344"/>
     <use xlink:href="#TimesNewRomanPSMT-32" x="449.902344"/>
     <use xlink:href="#TimesNewRomanPSMT-29" x="499.902344"/>
    </g>
   </g>
   <g id="text_10">
    <!-- (0.29, 0.29) -->
    <g transform="translate(95.066502 43.989401) scale(0.12 -0.12)">
     <defs>
      <path id="TimesNewRomanPSMT-39" d="M 338 -88 
L 338 28 
Q 744 34 1094 217 
Q 1444 400 1770 856 
Q 2097 1313 2225 1859 
Q 1734 1544 1338 1544 
Q 891 1544 572 1889 
Q 253 2234 253 2806 
Q 253 3363 572 3797 
Q 956 4325 1575 4325 
Q 2097 4325 2469 3894 
Q 2925 3359 2925 2575 
Q 2925 1869 2578 1258 
Q 2231 647 1613 244 
Q 1109 -88 516 -88 
L 338 -88 
z
M 2275 2091 
Q 2331 2497 2331 2741 
Q 2331 3044 2228 3395 
Q 2125 3747 1936 3934 
Q 1747 4122 1506 4122 
Q 1228 4122 1018 3872 
Q 809 3622 809 3128 
Q 809 2469 1088 2097 
Q 1291 1828 1588 1828 
Q 1731 1828 1928 1897 
Q 2125 1966 2275 2091 
z
" transform="scale(0.015625)"/>
     </defs>
     <use xlink:href="#TimesNewRomanPSMT-28"/>
     <use xlink:href="#TimesNewRomanPSMT-30" x="33.300781"/>
     <use xlink:href="#TimesNewRomanPSMT-2e" x="83.300781"/>
     <use xlink:href="#TimesNewRomanPSMT-32" x="108.300781"/>
     <use xlink:href="#TimesNewRomanPSMT-39" x="158.300781"/>
     <use xlink:href="#TimesNewRomanPSMT-2c" x="208.300781"/>
     <use xlink:href="#TimesNewRomanPSMT-20" x="233.300781"/>
     <use xlink:href="#TimesNewRomanPSMT-30" x="258.300781"/>
     <use xlink:href="#TimesNewRomanPSMT-2e" x="308.300781"/>
     <use xlink:href="#TimesNewRomanPSMT-32" x="333.300781"/>
     <use xlink:href="#TimesNewRomanPSMT-39" x="383.300781"/>
     <use xlink:href="#TimesNewRomanPSMT-29" x="433.300781"/>
    </g>
   </g>
   <g id="text_11">
    <!-- (2.22, 2.22) -->
    <g transform="translate(290.997175 96.488867) scale(0.12 -0.12)">
     <use xlink:href="#TimesNewRomanPSMT-28"/>
     <use xlink:href="#TimesNewRomanPSMT-32" x="33.300781"/>
     <use xlink:href="#TimesNewRomanPSMT-2e" x="83.300781"/>
     <use xlink:href="#TimesNewRomanPSMT-32" x="108.300781"/>
     <use xlink:href="#TimesNewRomanPSMT-32" x="158.300781"/>
     <use xlink:href="#TimesNewRomanPSMT-2c" x="208.300781"/>
     <use xlink:href="#TimesNewRomanPSMT-20" x="233.300781"/>
     <use xlink:href="#TimesNewRomanPSMT-32" x="258.300781"/>
     <use xlink:href="#TimesNewRomanPSMT-2e" x="308.300781"/>
     <use xlink:href="#TimesNewRomanPSMT-32" x="333.300781"/>
     <use xlink:href="#TimesNewRomanPSMT-32" x="383.300781"/>
     <use xlink:href="#TimesNewRomanPSMT-29" x="433.300781"/>
    </g>
   </g>
   <g id="text_12">
    <!-- (1.71, 1.71) -->
    <g transform="translate(238.49771 292.41954) scale(0.12 -0.12)">
     <use xlink:href="#TimesNewRomanPSMT-28"/>
     <use xlink:href="#TimesNewRomanPSMT-31" x="33.300781"/>
     <use xlink:href="#TimesNewRomanPSMT-2e" x="83.300781"/>
     <use xlink:href="#TimesNewRomanPSMT-37" x="108.300781"/>
     <use xlink:href="#TimesNewRomanPSMT-31" x="158.300781"/>
     <use xlink:href="#TimesNewRomanPSMT-2c" x="208.300781"/>
     <use xlink:href="#TimesNewRomanPSMT-20" x="233.300781"/>
     <use xlink:href="#TimesNewRomanPSMT-31" x="258.300781"/>
     <use xlink:href="#TimesNewRomanPSMT-2e" x="308.300781"/>
     <use xlink:href="#TimesNewRomanPSMT-37" x="333.300781"/>
     <use xlink:href="#TimesNewRomanPSMT-31" x="383.300781"/>
     <use xlink:href="#TimesNewRomanPSMT-29" x="433.300781"/>
    </g>
   </g>
   <g id="legend_1">
    <g id="patch_7">
     <path d="M 166.463153 42.820781 
L 291.783153 42.820781 
Q 294.383153 42.820781 294.383153 40.220781 
L 294.383153 23.14 
Q 294.383153 20.54 291.783153 20.54 
L 166.463153 20.54 
Q 163.863153 20.54 163.863153 23.14 
L 163.863153 40.220781 
Q 163.863153 42.820781 166.463153 42.820781 
z
" style="fill: #ffffff; opacity: 0.8; stroke: #cccccc; stroke-linejoin: miter"/>
    </g>
    <g id="line2d_9">
     <path d="M 169.063153 30.29 
L 182.063153 30.29 
L 195.063153 30.29 
" style="fill: none; stroke: #ff7f0e; stroke-width: 1.5; stroke-linecap: square"/>
     <g>
      <use xlink:href="#m0c71dc1c28" x="182.063153" y="30.29" style="fill: #ff7f0e; stroke: #ff7f0e"/>
     </g>
    </g>
    <g id="text_13">
     <!-- rotation $\theta$ = 75° -->
     <g transform="translate(205.463153 34.84) scale(0.13 -0.13)">
      <defs>
       <path id="TimesNewRomanPSMT-72" d="M 1038 2947 
L 1038 2303 
Q 1397 2947 1775 2947 
Q 1947 2947 2059 2842 
Q 2172 2738 2172 2600 
Q 2172 2478 2090 2393 
Q 2009 2309 1897 2309 
Q 1788 2309 1652 2417 
Q 1516 2525 1450 2525 
Q 1394 2525 1328 2463 
Q 1188 2334 1038 2041 
L 1038 669 
Q 1038 431 1097 309 
Q 1138 225 1241 169 
Q 1344 113 1538 113 
L 1538 0 
L 72 0 
L 72 113 
Q 291 113 397 181 
Q 475 231 506 341 
Q 522 394 522 644 
L 522 1753 
Q 522 2253 501 2348 
Q 481 2444 426 2487 
Q 372 2531 291 2531 
Q 194 2531 72 2484 
L 41 2597 
L 906 2947 
L 1038 2947 
z
" transform="scale(0.015625)"/>
       <path id="TimesNewRomanPSMT-6f" d="M 1600 2947 
Q 2250 2947 2644 2453 
Q 2978 2031 2978 1484 
Q 2978 1100 2793 706 
Q 2609 313 2286 112 
Q 1963 -88 1566 -88 
Q 919 -88 538 428 
Q 216 863 216 1403 
Q 216 1797 411 2186 
Q 606 2575 925 2761 
Q 1244 2947 1600 2947 
z
M 1503 2744 
Q 1338 2744 1170 2645 
Q 1003 2547 900 2300 
Q 797 2053 797 1666 
Q 797 1041 1045 587 
Q 1294 134 1700 134 
Q 2003 134 2200 384 
Q 2397 634 2397 1244 
Q 2397 2006 2069 2444 
Q 1847 2744 1503 2744 
z
" transform="scale(0.015625)"/>
       <path id="TimesNewRomanPSMT-74" d="M 1031 3803 
L 1031 2863 
L 1700 2863 
L 1700 2644 
L 1031 2644 
L 1031 788 
Q 1031 509 1111 412 
Q 1191 316 1316 316 
Q 1419 316 1516 380 
Q 1613 444 1666 569 
L 1788 569 
Q 1678 263 1478 108 
Q 1278 -47 1066 -47 
Q 922 -47 784 33 
Q 647 113 581 261 
Q 516 409 516 719 
L 516 2644 
L 63 2644 
L 63 2747 
Q 234 2816 414 2980 
Q 594 3144 734 3369 
Q 806 3488 934 3803 
L 1031 3803 
z
" transform="scale(0.015625)"/>
       <path id="TimesNewRomanPSMT-61" d="M 1822 413 
Q 1381 72 1269 19 
Q 1100 -59 909 -59 
Q 613 -59 420 144 
Q 228 347 228 678 
Q 228 888 322 1041 
Q 450 1253 767 1440 
Q 1084 1628 1822 1897 
L 1822 2009 
Q 1822 2438 1686 2597 
Q 1550 2756 1291 2756 
Q 1094 2756 978 2650 
Q 859 2544 859 2406 
L 866 2225 
Q 866 2081 792 2003 
Q 719 1925 600 1925 
Q 484 1925 411 2006 
Q 338 2088 338 2228 
Q 338 2497 613 2722 
Q 888 2947 1384 2947 
Q 1766 2947 2009 2819 
Q 2194 2722 2281 2516 
Q 2338 2381 2338 1966 
L 2338 994 
Q 2338 584 2353 492 
Q 2369 400 2405 369 
Q 2441 338 2488 338 
Q 2538 338 2575 359 
Q 2641 400 2828 588 
L 2828 413 
Q 2478 -56 2159 -56 
Q 2006 -56 1915 50 
Q 1825 156 1822 413 
z
M 1822 616 
L 1822 1706 
Q 1350 1519 1213 1441 
Q 966 1303 859 1153 
Q 753 1003 753 825 
Q 753 600 887 451 
Q 1022 303 1197 303 
Q 1434 303 1822 616 
z
" transform="scale(0.015625)"/>
       <path id="TimesNewRomanPSMT-69" d="M 928 4444 
Q 1059 4444 1151 4351 
Q 1244 4259 1244 4128 
Q 1244 3997 1151 3903 
Q 1059 3809 928 3809 
Q 797 3809 703 3903 
Q 609 3997 609 4128 
Q 609 4259 701 4351 
Q 794 4444 928 4444 
z
M 1188 2947 
L 1188 647 
Q 1188 378 1227 289 
Q 1266 200 1342 156 
Q 1419 113 1622 113 
L 1622 0 
L 231 0 
L 231 113 
Q 441 113 512 153 
Q 584 194 626 287 
Q 669 381 669 647 
L 669 1750 
Q 669 2216 641 2353 
Q 619 2453 572 2492 
Q 525 2531 444 2531 
Q 356 2531 231 2484 
L 188 2597 
L 1050 2947 
L 1188 2947 
z
" transform="scale(0.015625)"/>
       <path id="TimesNewRomanPSMT-6e" d="M 1034 2341 
Q 1538 2947 1994 2947 
Q 2228 2947 2397 2830 
Q 2566 2713 2666 2444 
Q 2734 2256 2734 1869 
L 2734 647 
Q 2734 375 2778 278 
Q 2813 200 2889 156 
Q 2966 113 3172 113 
L 3172 0 
L 1756 0 
L 1756 113 
L 1816 113 
Q 2016 113 2095 173 
Q 2175 234 2206 353 
Q 2219 400 2219 647 
L 2219 1819 
Q 2219 2209 2117 2386 
Q 2016 2563 1775 2563 
Q 1403 2563 1034 2156 
L 1034 647 
Q 1034 356 1069 288 
Q 1113 197 1189 155 
Q 1266 113 1500 113 
L 1500 0 
L 84 0 
L 84 113 
L 147 113 
Q 366 113 442 223 
Q 519 334 519 647 
L 519 1709 
Q 519 2225 495 2337 
Q 472 2450 423 2490 
Q 375 2531 294 2531 
Q 206 2531 84 2484 
L 38 2597 
L 900 2947 
L 1034 2947 
L 1034 2341 
z
" transform="scale(0.015625)"/>
       <path id="DejaVuSans-Oblique-3b8" d="M 2913 2219 
L 925 2219 
Q 791 1284 928 888 
Q 1100 400 1566 400 
Q 2034 400 2391 891 
Q 2703 1322 2913 2219 
z
M 3009 2750 
Q 3094 3638 2984 3950 
Q 2813 4444 2353 4444 
Q 1875 4444 1525 3956 
Q 1250 3563 1034 2750 
L 3009 2750 
z
M 2444 4913 
Q 3194 4913 3494 4250 
Q 3794 3591 3566 2422 
Q 3341 1256 2781 594 
Q 2225 -72 1475 -72 
Q 722 -72 425 594 
Q 128 1256 353 2422 
Q 581 3591 1134 4250 
Q 1691 4913 2444 4913 
z
" transform="scale(0.015625)"/>
       <path id="TimesNewRomanPSMT-3d" d="M 116 2759 
L 3488 2759 
L 3488 2503 
L 116 2503 
L 116 2759 
z
M 116 1741 
L 3488 1741 
L 3488 1484 
L 116 1484 
L 116 1741 
z
" transform="scale(0.015625)"/>
       <path id="TimesNewRomanPSMT-35" d="M 2778 4238 
L 2534 3706 
L 1259 3706 
L 981 3138 
Q 1809 3016 2294 2522 
Q 2709 2097 2709 1522 
Q 2709 1188 2573 903 
Q 2438 619 2231 419 
Q 2025 219 1772 97 
Q 1413 -75 1034 -75 
Q 653 -75 479 54 
Q 306 184 306 341 
Q 306 428 378 495 
Q 450 563 559 563 
Q 641 563 702 538 
Q 763 513 909 409 
Q 1144 247 1384 247 
Q 1750 247 2026 523 
Q 2303 800 2303 1197 
Q 2303 1581 2056 1914 
Q 1809 2247 1375 2428 
Q 1034 2569 447 2591 
L 1259 4238 
L 2778 4238 
z
" transform="scale(0.015625)"/>
       <path id="TimesNewRomanPSMT-b0" d="M 1266 4331 
Q 1669 4331 1948 4050 
Q 2228 3769 2228 3369 
Q 2228 2972 1947 2690 
Q 1666 2409 1266 2409 
Q 869 2409 587 2690 
Q 306 2972 306 3369 
Q 306 3769 586 4050 
Q 866 4331 1266 4331 
z
M 1266 4069 
Q 975 4069 772 3866 
Q 569 3663 569 3372 
Q 569 3084 772 2879 
Q 975 2675 1266 2675 
Q 1553 2675 1758 2879 
Q 1963 3084 1963 3372 
Q 1963 3663 1759 3866 
Q 1556 4069 1266 4069 
z
" transform="scale(0.015625)"/>
      </defs>
      <use xlink:href="#TimesNewRomanPSMT-72" transform="translate(0 0.234375)"/>
      <use xlink:href="#TimesNewRomanPSMT-6f" transform="translate(33.300781 0.234375)"/>
      <use xlink:href="#TimesNewRomanPSMT-74" transform="translate(83.300781 0.234375)"/>
      <use xlink:href="#TimesNewRomanPSMT-61" transform="translate(111.083984 0.234375)"/>
      <use xlink:href="#TimesNewRomanPSMT-74" transform="translate(155.46875 0.234375)"/>
      <use xlink:href="#TimesNewRomanPSMT-69" transform="translate(183.251953 0.234375)"/>
      <use xlink:href="#TimesNewRomanPSMT-6f" transform="translate(211.035156 0.234375)"/>
      <use xlink:href="#TimesNewRomanPSMT-6e" transform="translate(261.035156 0.234375)"/>
      <use xlink:href="#TimesNewRomanPSMT-20" transform="translate(311.035156 0.234375)"/>
      <use xlink:href="#DejaVuSans-Oblique-3b8" transform="translate(336.035156 0.234375)"/>
      <use xlink:href="#TimesNewRomanPSMT-20" transform="translate(397.216797 0.234375)"/>
      <use xlink:href="#TimesNewRomanPSMT-3d" transform="translate(422.216797 0.234375)"/>
      <use xlink:href="#TimesNewRomanPSMT-20" transform="translate(478.613281 0.234375)"/>
      <use xlink:href="#TimesNewRomanPSMT-37" transform="translate(503.613281 0.234375)"/>
      <use xlink:href="#TimesNewRomanPSMT-35" transform="translate(553.613281 0.234375)"/>
      <use xlink:href="#TimesNewRomanPSMT-b0" transform="translate(603.613281 0.234375)"/>
     </g>
    </g>
   </g>
  </g>
 </g>
 <defs>
  <clipPath id="pc8c7a74aec">
   <rect x="27.61" y="14.04" width="273.273153" height="313.4"/>
  </clipPath>
 </defs>
</svg>
